<mxfile host="app.diagrams.net" modified="2024-01-15T00:18:56.987Z" agent="Mozilla/5.0 (X11; Linux x86_64) AppleWebKit/537.36 (KHTML, like Gecko) Chrome/120.0.0.0 Safari/537.36" version="22.1.18" etag="ZAOwX0hnUNzcOgB6lRQ9" type="github">
  <diagram name="Page-1" id="-vKkQKRG6O59B7YX4_EB">
    <mxGraphModel>
      <root>
        <mxCell id="0" />
        <mxCell id="1" parent="0" />
      </root>
    </mxGraphModel>
  </diagram>
</mxfile>
